<svg width="512" height="512" viewBox="0 0 512 512" xmlns="http://www.w3.org/2000/svg">
  <defs>
    <linearGradient id="darkBg" x1="0%" y1="0%" x2="0%" y2="100%">
      <stop offset="0%" stop-color="#2a2e37"/>
      <stop offset="100%" stop-color="#0e1014"/>
    </linearGradient>
    <radialGradient id="radialGlow" cx="50%" cy="18%" r="65%">
      <stop offset="0%" stop-color="#ffffff" stop-opacity="0.09"/>
      <stop offset="50%" stop-color="#ffffff" stop-opacity="0.02"/>
      <stop offset="100%" stop-color="#000000" stop-opacity="0"/>
    </radialGradient>
    <linearGradient id="glyphGrad" x1="0%" y1="0%" x2="0%" y2="100%">
      <stop offset="0%" stop-color="#ffffff"/>
      <stop offset="100%" stop-color="#e4e8f0"/>
    </linearGradient>
    <filter id="glyphShadow" x="-20%" y="-20%" width="140%" height="140%">
      <feDropShadow dx="0" dy="4.096" stdDeviation="6.144" flood-color="#000000" flood-opacity="0.45"/>
    </filter>
  </defs>
  <rect width="512" height="512" fill="url(#darkBg)"/>
  <rect width="512" height="512" fill="url(#radialGlow)"/>
  <line x1="0" y1="1" x2="512" y2="1" stroke="#ffffff" stroke-opacity="0.06" stroke-width="1.5"/>
  <g transform="translate(256, 256) scale(0.38) translate(-480, 480)" filter="url(#glyphShadow)">
    <path fill="url(#glyphGrad)" d="M324-111.5Q251-143 197-197t-85.5-127Q80-397 80-480t31.5-156Q143-709 197-763t127-85.5Q397-880 480-880t156 31.5Q709-817 763-763t85.5 127Q880-563 880-480t-31.5 156Q817-251 763-197t-127 85.5Q563-80 480-80t-156-31.5ZM707-253q93-93 93-227t-93-227q-93-93-227-93t-227 93q-93 93-93 227t93 227q93 93 227 93t227-93Zm-397-57q-70-70-70-170t70-170q70-70 170-70t170 70q70 70 70 170t-70 170q-70 70-170 70t-170-70Zm283-57q47-47 47-113t-47-113q-47-47-113-47t-113 47q-47 47-47 113t47 113q47 47 113 47t113-47Zm-169.5-56.5Q400-447 400-480t23.5-56.5Q447-560 480-560t56.5 23.5Q560-513 560-480t-23.5 56.5Q513-400 480-400t-56.5-23.5Z"/>
  </g>
</svg>
